<mxfile host="app.diagrams.net" agent="Mozilla/5.0 (Windows NT 10.0; Win64; x64; rv:131.0) Gecko/20100101 Firefox/131.0" version="24.8.3">
  <diagram name="Page-1" id="13e1069c-82ec-6db2-03f1-153e76fe0fe0">
    <mxGraphModel dx="2582" dy="1371" grid="1" gridSize="10" guides="1" tooltips="1" connect="1" arrows="1" fold="1" page="1" pageScale="1" pageWidth="1100" pageHeight="850" background="none" math="0" shadow="0">
      <root>
        <mxCell id="0" />
        <mxCell id="1" parent="0" />
        <mxCell id="7baba1c4bc27f4b0-4" value="shell:ShellComponent" style="shape=umlLifeline;perimeter=lifelinePerimeter;whiteSpace=wrap;html=1;container=1;collapsible=0;recursiveResize=0;outlineConnect=0;rounded=1;shadow=0;comic=0;labelBackgroundColor=none;strokeWidth=1;fontFamily=Verdana;fontSize=12;align=center;" parent="1" vertex="1">
          <mxGeometry x="485" y="70" width="210" height="1110" as="geometry" />
        </mxCell>
        <mxCell id="7baba1c4bc27f4b0-16" value="" style="html=1;points=[];perimeter=orthogonalPerimeter;rounded=0;shadow=0;comic=0;labelBackgroundColor=none;strokeWidth=1;fontFamily=Verdana;fontSize=12;align=center;" parent="7baba1c4bc27f4b0-4" vertex="1">
          <mxGeometry x="100" y="120" width="10" height="50" as="geometry" />
        </mxCell>
        <mxCell id="je0l_PIvOaVlnG0qqJf4-9" value="" style="html=1;verticalAlign=bottom;endArrow=block;labelBackgroundColor=none;fontFamily=Verdana;fontSize=12;" edge="1" parent="7baba1c4bc27f4b0-4">
          <mxGeometry relative="1" as="geometry">
            <mxPoint x="110" y="160" as="sourcePoint" />
            <mxPoint x="389.5" y="160" as="targetPoint" />
            <Array as="points">
              <mxPoint x="340.5" y="160" />
            </Array>
          </mxGeometry>
        </mxCell>
        <mxCell id="je0l_PIvOaVlnG0qqJf4-10" value="&lt;div&gt;rollDice()&lt;/div&gt;" style="edgeLabel;html=1;align=center;verticalAlign=middle;resizable=0;points=[];fontSize=16;" vertex="1" connectable="0" parent="je0l_PIvOaVlnG0qqJf4-9">
          <mxGeometry x="-0.075" y="3" relative="1" as="geometry">
            <mxPoint as="offset" />
          </mxGeometry>
        </mxCell>
        <mxCell id="7baba1c4bc27f4b0-23" value="" style="html=1;verticalAlign=bottom;endArrow=block;labelBackgroundColor=none;fontFamily=Verdana;fontSize=12;" parent="7baba1c4bc27f4b0-4" edge="1">
          <mxGeometry relative="1" as="geometry">
            <mxPoint x="-340" y="129" as="sourcePoint" />
            <mxPoint x="100" y="129" as="targetPoint" />
            <Array as="points">
              <mxPoint x="-169.5" y="129" />
            </Array>
          </mxGeometry>
        </mxCell>
        <mxCell id="je0l_PIvOaVlnG0qqJf4-5" value="roll dice" style="edgeLabel;html=1;align=center;verticalAlign=middle;resizable=0;points=[];fontSize=16;" vertex="1" connectable="0" parent="7baba1c4bc27f4b0-23">
          <mxGeometry x="-0.075" y="3" relative="1" as="geometry">
            <mxPoint as="offset" />
          </mxGeometry>
        </mxCell>
        <mxCell id="je0l_PIvOaVlnG0qqJf4-14" value="" style="html=1;points=[];perimeter=orthogonalPerimeter;rounded=0;shadow=0;comic=0;labelBackgroundColor=none;strokeWidth=1;fontFamily=Verdana;fontSize=12;align=center;" vertex="1" parent="7baba1c4bc27f4b0-4">
          <mxGeometry x="100" y="240" width="10" height="50" as="geometry" />
        </mxCell>
        <mxCell id="je0l_PIvOaVlnG0qqJf4-21" value="" style="endArrow=classic;html=1;rounded=0;" edge="1" parent="7baba1c4bc27f4b0-4" target="7baba1c4bc27f4b0-8">
          <mxGeometry width="50" height="50" relative="1" as="geometry">
            <mxPoint x="389.5" y="364.58" as="sourcePoint" />
            <mxPoint x="-315" y="365" as="targetPoint" />
          </mxGeometry>
        </mxCell>
        <mxCell id="je0l_PIvOaVlnG0qqJf4-22" value="displayDice()" style="edgeLabel;html=1;align=center;verticalAlign=middle;resizable=0;points=[];fontSize=16;" vertex="1" connectable="0" parent="je0l_PIvOaVlnG0qqJf4-21">
          <mxGeometry x="0.267" y="2" relative="1" as="geometry">
            <mxPoint x="55" y="-2" as="offset" />
          </mxGeometry>
        </mxCell>
        <mxCell id="je0l_PIvOaVlnG0qqJf4-25" value="" style="html=1;points=[];perimeter=orthogonalPerimeter;rounded=0;shadow=0;comic=0;labelBackgroundColor=none;strokeWidth=1;fontFamily=Verdana;fontSize=12;align=center;" vertex="1" parent="7baba1c4bc27f4b0-4">
          <mxGeometry x="100" y="400" width="10" height="50" as="geometry" />
        </mxCell>
        <mxCell id="je0l_PIvOaVlnG0qqJf4-26" value="" style="html=1;verticalAlign=bottom;endArrow=block;labelBackgroundColor=none;fontFamily=Verdana;fontSize=12;" edge="1" parent="7baba1c4bc27f4b0-4">
          <mxGeometry relative="1" as="geometry">
            <mxPoint x="110" y="440" as="sourcePoint" />
            <mxPoint x="389.5" y="440" as="targetPoint" />
            <Array as="points">
              <mxPoint x="340.5" y="440" />
            </Array>
          </mxGeometry>
        </mxCell>
        <mxCell id="je0l_PIvOaVlnG0qqJf4-27" value="&lt;div&gt;rollDice()&lt;/div&gt;" style="edgeLabel;html=1;align=center;verticalAlign=middle;resizable=0;points=[];fontSize=16;" vertex="1" connectable="0" parent="je0l_PIvOaVlnG0qqJf4-26">
          <mxGeometry x="-0.075" y="3" relative="1" as="geometry">
            <mxPoint as="offset" />
          </mxGeometry>
        </mxCell>
        <mxCell id="je0l_PIvOaVlnG0qqJf4-28" value="" style="html=1;verticalAlign=bottom;endArrow=block;labelBackgroundColor=none;fontFamily=Verdana;fontSize=12;" edge="1" parent="7baba1c4bc27f4b0-4">
          <mxGeometry relative="1" as="geometry">
            <mxPoint x="-340" y="409" as="sourcePoint" />
            <mxPoint x="100" y="409" as="targetPoint" />
            <Array as="points">
              <mxPoint x="-169.5" y="409" />
            </Array>
          </mxGeometry>
        </mxCell>
        <mxCell id="je0l_PIvOaVlnG0qqJf4-29" value="roll dice" style="edgeLabel;html=1;align=center;verticalAlign=middle;resizable=0;points=[];fontSize=16;" vertex="1" connectable="0" parent="je0l_PIvOaVlnG0qqJf4-28">
          <mxGeometry x="-0.075" y="3" relative="1" as="geometry">
            <mxPoint as="offset" />
          </mxGeometry>
        </mxCell>
        <mxCell id="je0l_PIvOaVlnG0qqJf4-30" value="" style="endArrow=classic;html=1;rounded=0;" edge="1" parent="7baba1c4bc27f4b0-4">
          <mxGeometry width="50" height="50" relative="1" as="geometry">
            <mxPoint x="389.5" y="490" as="sourcePoint" />
            <mxPoint x="-335.3333333333335" y="490" as="targetPoint" />
          </mxGeometry>
        </mxCell>
        <mxCell id="je0l_PIvOaVlnG0qqJf4-31" value="displayDice()" style="edgeLabel;html=1;align=center;verticalAlign=middle;resizable=0;points=[];fontSize=16;" vertex="1" connectable="0" parent="je0l_PIvOaVlnG0qqJf4-30">
          <mxGeometry x="0.0727" y="-2" relative="1" as="geometry">
            <mxPoint x="2" as="offset" />
          </mxGeometry>
        </mxCell>
        <mxCell id="je0l_PIvOaVlnG0qqJf4-43" value="" style="html=1;points=[];perimeter=orthogonalPerimeter;rounded=0;shadow=0;comic=0;labelBackgroundColor=none;strokeWidth=1;fontFamily=Verdana;fontSize=12;align=center;" vertex="1" parent="7baba1c4bc27f4b0-4">
          <mxGeometry x="100" y="760" width="10" height="50" as="geometry" />
        </mxCell>
        <mxCell id="je0l_PIvOaVlnG0qqJf4-44" value="" style="endArrow=classic;html=1;rounded=0;" edge="1" parent="7baba1c4bc27f4b0-4">
          <mxGeometry width="50" height="50" relative="1" as="geometry">
            <mxPoint x="109.99666666666653" y="799.9999999999999" as="sourcePoint" />
            <mxPoint x="394.83" y="799.9999999999999" as="targetPoint" />
            <Array as="points">
              <mxPoint x="390.33" y="799.9999999999999" />
            </Array>
          </mxGeometry>
        </mxCell>
        <mxCell id="je0l_PIvOaVlnG0qqJf4-45" value="computeScore()" style="edgeLabel;html=1;align=center;verticalAlign=middle;resizable=0;points=[];fontSize=16;" vertex="1" connectable="0" parent="je0l_PIvOaVlnG0qqJf4-44">
          <mxGeometry x="-0.0415" relative="1" as="geometry">
            <mxPoint as="offset" />
          </mxGeometry>
        </mxCell>
        <mxCell id="je0l_PIvOaVlnG0qqJf4-41" value="" style="endArrow=classic;html=1;rounded=0;" edge="1" parent="7baba1c4bc27f4b0-4">
          <mxGeometry width="50" height="50" relative="1" as="geometry">
            <mxPoint x="-330" y="770" as="sourcePoint" />
            <mxPoint x="100" y="770" as="targetPoint" />
          </mxGeometry>
        </mxCell>
        <mxCell id="je0l_PIvOaVlnG0qqJf4-42" value="select dice to score" style="edgeLabel;html=1;align=center;verticalAlign=middle;resizable=0;points=[];fontSize=16;" vertex="1" connectable="0" parent="je0l_PIvOaVlnG0qqJf4-41">
          <mxGeometry x="-0.0168" relative="1" as="geometry">
            <mxPoint as="offset" />
          </mxGeometry>
        </mxCell>
        <mxCell id="je0l_PIvOaVlnG0qqJf4-52" value="" style="html=1;points=[];perimeter=orthogonalPerimeter;rounded=0;shadow=0;comic=0;labelBackgroundColor=none;strokeWidth=1;fontFamily=Verdana;fontSize=12;align=center;" vertex="1" parent="7baba1c4bc27f4b0-4">
          <mxGeometry x="100" y="950" width="10" height="50" as="geometry" />
        </mxCell>
        <mxCell id="7baba1c4bc27f4b0-8" value="player1:HumanPlayer" style="shape=umlLifeline;perimeter=lifelinePerimeter;whiteSpace=wrap;html=1;container=1;collapsible=0;recursiveResize=0;outlineConnect=0;rounded=1;shadow=0;comic=0;labelBackgroundColor=none;strokeWidth=1;fontFamily=Verdana;fontSize=12;align=center;" parent="1" vertex="1">
          <mxGeometry x="70" y="80" width="160" height="1100" as="geometry" />
        </mxCell>
        <mxCell id="7baba1c4bc27f4b0-9" value="" style="html=1;points=[];perimeter=orthogonalPerimeter;rounded=0;shadow=0;comic=0;labelBackgroundColor=none;strokeWidth=1;fontFamily=Verdana;fontSize=12;align=center;" parent="7baba1c4bc27f4b0-8" vertex="1">
          <mxGeometry x="75" y="110" width="10" height="950" as="geometry" />
        </mxCell>
        <mxCell id="je0l_PIvOaVlnG0qqJf4-1" value="gameService:GameService" style="shape=umlLifeline;perimeter=lifelinePerimeter;whiteSpace=wrap;html=1;container=1;collapsible=0;recursiveResize=0;outlineConnect=0;rounded=1;shadow=0;comic=0;labelBackgroundColor=none;strokeWidth=1;fontFamily=Verdana;fontSize=12;align=center;" vertex="1" parent="1">
          <mxGeometry x="770" y="70" width="210" height="1110" as="geometry" />
        </mxCell>
        <mxCell id="je0l_PIvOaVlnG0qqJf4-2" value="" style="html=1;points=[];perimeter=orthogonalPerimeter;rounded=0;shadow=0;comic=0;labelBackgroundColor=none;strokeWidth=1;fontFamily=Verdana;fontSize=12;align=center;" vertex="1" parent="je0l_PIvOaVlnG0qqJf4-1">
          <mxGeometry x="100" y="60" width="10" height="580" as="geometry" />
        </mxCell>
        <mxCell id="7baba1c4bc27f4b0-36" value="initGame()" style="html=1;verticalAlign=bottom;endArrow=block;labelBackgroundColor=none;fontFamily=Verdana;fontSize=15;elbow=vertical;edgeStyle=orthogonalEdgeStyle;curved=1;" parent="je0l_PIvOaVlnG0qqJf4-1" source="je0l_PIvOaVlnG0qqJf4-2" edge="1">
          <mxGeometry x="0.1064" y="55" relative="1" as="geometry">
            <mxPoint x="115.66000000000008" y="70.0100000000001" as="sourcePoint" />
            <mxPoint x="110" y="109.10000000000002" as="targetPoint" />
            <Array as="points">
              <mxPoint x="165" y="70" />
              <mxPoint x="165" y="109" />
            </Array>
            <mxPoint as="offset" />
          </mxGeometry>
        </mxCell>
        <mxCell id="je0l_PIvOaVlnG0qqJf4-19" value="computeTurnScore()" style="html=1;verticalAlign=bottom;endArrow=block;labelBackgroundColor=none;fontFamily=Verdana;fontSize=15;elbow=vertical;edgeStyle=orthogonalEdgeStyle;curved=1;" edge="1" parent="je0l_PIvOaVlnG0qqJf4-1" source="je0l_PIvOaVlnG0qqJf4-2">
          <mxGeometry x="0.1064" y="85" relative="1" as="geometry">
            <mxPoint x="115.66000000000008" y="300.0100000000001" as="sourcePoint" />
            <mxPoint x="110" y="339.1" as="targetPoint" />
            <Array as="points">
              <mxPoint x="165" y="300" />
              <mxPoint x="165" y="339" />
            </Array>
            <mxPoint as="offset" />
          </mxGeometry>
        </mxCell>
        <mxCell id="je0l_PIvOaVlnG0qqJf4-12" value="" style="endArrow=classic;html=1;rounded=0;" edge="1" parent="je0l_PIvOaVlnG0qqJf4-1">
          <mxGeometry width="50" height="50" relative="1" as="geometry">
            <mxPoint x="100" y="210" as="sourcePoint" />
            <mxPoint x="-620.3333333333335" y="210" as="targetPoint" />
          </mxGeometry>
        </mxCell>
        <mxCell id="je0l_PIvOaVlnG0qqJf4-13" value="displayDice()" style="edgeLabel;html=1;align=center;verticalAlign=middle;resizable=0;points=[];fontSize=16;" vertex="1" connectable="0" parent="je0l_PIvOaVlnG0qqJf4-12">
          <mxGeometry x="0.0727" y="-2" relative="1" as="geometry">
            <mxPoint x="2" as="offset" />
          </mxGeometry>
        </mxCell>
        <mxCell id="je0l_PIvOaVlnG0qqJf4-32" value="randomRoll()" style="html=1;verticalAlign=bottom;endArrow=block;labelBackgroundColor=none;fontFamily=Verdana;fontSize=15;elbow=vertical;edgeStyle=orthogonalEdgeStyle;curved=1;" edge="1" parent="je0l_PIvOaVlnG0qqJf4-1" source="je0l_PIvOaVlnG0qqJf4-2">
          <mxGeometry x="0.1064" y="55" relative="1" as="geometry">
            <mxPoint x="115.66000000000008" y="170.0100000000001" as="sourcePoint" />
            <mxPoint x="110" y="200" as="targetPoint" />
            <Array as="points">
              <mxPoint x="165" y="170" />
              <mxPoint x="165" y="200" />
            </Array>
            <mxPoint as="offset" />
          </mxGeometry>
        </mxCell>
        <mxCell id="je0l_PIvOaVlnG0qqJf4-33" value="randomRoll()" style="html=1;verticalAlign=bottom;endArrow=block;labelBackgroundColor=none;fontFamily=Verdana;fontSize=15;elbow=vertical;edgeStyle=orthogonalEdgeStyle;curved=1;" edge="1" parent="je0l_PIvOaVlnG0qqJf4-1">
          <mxGeometry x="0.1064" y="55" relative="1" as="geometry">
            <mxPoint x="110" y="450" as="sourcePoint" />
            <mxPoint x="110" y="480" as="targetPoint" />
            <Array as="points">
              <mxPoint x="165" y="450" />
              <mxPoint x="165" y="480" />
            </Array>
            <mxPoint as="offset" />
          </mxGeometry>
        </mxCell>
        <mxCell id="je0l_PIvOaVlnG0qqJf4-40" value="endTurn()" style="html=1;verticalAlign=bottom;endArrow=block;labelBackgroundColor=none;fontFamily=Verdana;fontSize=15;elbow=vertical;edgeStyle=orthogonalEdgeStyle;curved=1;" edge="1" parent="je0l_PIvOaVlnG0qqJf4-1">
          <mxGeometry x="0.1064" y="55" relative="1" as="geometry">
            <mxPoint x="110" y="590" as="sourcePoint" />
            <mxPoint x="110" y="620" as="targetPoint" />
            <Array as="points">
              <mxPoint x="165" y="590" />
              <mxPoint x="165" y="620" />
            </Array>
            <mxPoint as="offset" />
          </mxGeometry>
        </mxCell>
        <mxCell id="je0l_PIvOaVlnG0qqJf4-46" value="computeTurnScore()" style="html=1;verticalAlign=bottom;endArrow=block;labelBackgroundColor=none;fontFamily=Verdana;fontSize=15;elbow=vertical;edgeStyle=orthogonalEdgeStyle;curved=1;" edge="1" parent="je0l_PIvOaVlnG0qqJf4-1">
          <mxGeometry x="0.1064" y="85" relative="1" as="geometry">
            <mxPoint x="110" y="820" as="sourcePoint" />
            <mxPoint x="110" y="859.1" as="targetPoint" />
            <Array as="points">
              <mxPoint x="165" y="820" />
              <mxPoint x="165" y="859" />
            </Array>
            <mxPoint as="offset" />
          </mxGeometry>
        </mxCell>
        <mxCell id="je0l_PIvOaVlnG0qqJf4-47" value="" style="endArrow=classic;html=1;rounded=0;" edge="1" parent="je0l_PIvOaVlnG0qqJf4-1">
          <mxGeometry width="50" height="50" relative="1" as="geometry">
            <mxPoint x="100" y="890" as="sourcePoint" />
            <mxPoint x="-615" y="890" as="targetPoint" />
          </mxGeometry>
        </mxCell>
        <mxCell id="je0l_PIvOaVlnG0qqJf4-48" value="displayDice()" style="edgeLabel;html=1;align=center;verticalAlign=middle;resizable=0;points=[];fontSize=16;" vertex="1" connectable="0" parent="je0l_PIvOaVlnG0qqJf4-47">
          <mxGeometry x="0.267" y="2" relative="1" as="geometry">
            <mxPoint x="55" y="-2" as="offset" />
          </mxGeometry>
        </mxCell>
        <mxCell id="je0l_PIvOaVlnG0qqJf4-49" value="" style="html=1;points=[];perimeter=orthogonalPerimeter;rounded=0;shadow=0;comic=0;labelBackgroundColor=none;strokeWidth=1;fontFamily=Verdana;fontSize=12;align=center;" vertex="1" parent="je0l_PIvOaVlnG0qqJf4-1">
          <mxGeometry x="100" y="730" width="10" height="340" as="geometry" />
        </mxCell>
        <mxCell id="je0l_PIvOaVlnG0qqJf4-51" value="" style="shape=umlDestroy;whiteSpace=wrap;html=1;strokeWidth=3;targetShapes=umlLifeline;" vertex="1" parent="je0l_PIvOaVlnG0qqJf4-1">
          <mxGeometry x="90" y="660" width="30" height="30" as="geometry" />
        </mxCell>
        <mxCell id="je0l_PIvOaVlnG0qqJf4-55" value="" style="endArrow=classic;html=1;rounded=0;" edge="1" parent="je0l_PIvOaVlnG0qqJf4-1" target="je0l_PIvOaVlnG0qqJf4-1">
          <mxGeometry width="50" height="50" relative="1" as="geometry">
            <mxPoint x="-175" y="990" as="sourcePoint" />
            <mxPoint x="110" y="990" as="targetPoint" />
          </mxGeometry>
        </mxCell>
        <mxCell id="je0l_PIvOaVlnG0qqJf4-56" value="bankScore()" style="edgeLabel;html=1;align=center;verticalAlign=middle;resizable=0;points=[];fontSize=16;" vertex="1" connectable="0" parent="je0l_PIvOaVlnG0qqJf4-55">
          <mxGeometry x="-0.1556" relative="1" as="geometry">
            <mxPoint x="7" as="offset" />
          </mxGeometry>
        </mxCell>
        <mxCell id="je0l_PIvOaVlnG0qqJf4-57" value="bankScore()" style="html=1;verticalAlign=bottom;endArrow=block;labelBackgroundColor=none;fontFamily=Verdana;fontSize=15;elbow=vertical;edgeStyle=orthogonalEdgeStyle;curved=1;" edge="1" parent="je0l_PIvOaVlnG0qqJf4-1">
          <mxGeometry x="0.1402" y="55" relative="1" as="geometry">
            <mxPoint x="110" y="1010" as="sourcePoint" />
            <mxPoint x="110" y="1049.1" as="targetPoint" />
            <Array as="points">
              <mxPoint x="165" y="1010" />
              <mxPoint x="165" y="1049" />
            </Array>
            <mxPoint as="offset" />
          </mxGeometry>
        </mxCell>
        <mxCell id="je0l_PIvOaVlnG0qqJf4-15" value="" style="endArrow=classic;html=1;rounded=0;" edge="1" parent="1" source="7baba1c4bc27f4b0-9">
          <mxGeometry width="50" height="50" relative="1" as="geometry">
            <mxPoint x="160" y="320" as="sourcePoint" />
            <mxPoint x="585" y="320" as="targetPoint" />
          </mxGeometry>
        </mxCell>
        <mxCell id="je0l_PIvOaVlnG0qqJf4-16" value="select dice to score" style="edgeLabel;html=1;align=center;verticalAlign=middle;resizable=0;points=[];fontSize=16;" vertex="1" connectable="0" parent="je0l_PIvOaVlnG0qqJf4-15">
          <mxGeometry x="-0.0168" relative="1" as="geometry">
            <mxPoint as="offset" />
          </mxGeometry>
        </mxCell>
        <mxCell id="je0l_PIvOaVlnG0qqJf4-17" value="" style="endArrow=classic;html=1;rounded=0;" edge="1" parent="1" source="7baba1c4bc27f4b0-4" target="je0l_PIvOaVlnG0qqJf4-1">
          <mxGeometry width="50" height="50" relative="1" as="geometry">
            <mxPoint x="590.5" y="350" as="sourcePoint" />
            <mxPoint x="870" y="350" as="targetPoint" />
            <Array as="points">
              <mxPoint x="820" y="350" />
            </Array>
          </mxGeometry>
        </mxCell>
        <mxCell id="je0l_PIvOaVlnG0qqJf4-18" value="computeScore()" style="edgeLabel;html=1;align=center;verticalAlign=middle;resizable=0;points=[];fontSize=16;" vertex="1" connectable="0" parent="je0l_PIvOaVlnG0qqJf4-17">
          <mxGeometry x="-0.0415" relative="1" as="geometry">
            <mxPoint as="offset" />
          </mxGeometry>
        </mxCell>
        <mxCell id="je0l_PIvOaVlnG0qqJf4-58" value="Playing a turn as a human player" style="shape=umlFrame;whiteSpace=wrap;html=1;pointerEvents=0;recursiveResize=0;container=1;collapsible=0;width=160;fontSize=14;height=40;" vertex="1" parent="1">
          <mxGeometry y="10" width="1110" height="1260" as="geometry" />
        </mxCell>
        <mxCell id="je0l_PIvOaVlnG0qqJf4-61" value="" style="shape=umlDestroy;whiteSpace=wrap;html=1;strokeWidth=3;targetShapes=umlLifeline;" vertex="1" parent="je0l_PIvOaVlnG0qqJf4-58">
          <mxGeometry x="860" y="1160" width="30" height="30" as="geometry" />
        </mxCell>
        <mxCell id="je0l_PIvOaVlnG0qqJf4-62" value="" style="shape=umlDestroy;whiteSpace=wrap;html=1;strokeWidth=3;targetShapes=umlLifeline;" vertex="1" parent="je0l_PIvOaVlnG0qqJf4-58">
          <mxGeometry x="575" y="1160" width="30" height="30" as="geometry" />
        </mxCell>
        <mxCell id="je0l_PIvOaVlnG0qqJf4-64" value="" style="shape=umlDestroy;whiteSpace=wrap;html=1;strokeWidth=3;targetShapes=umlLifeline;" vertex="1" parent="je0l_PIvOaVlnG0qqJf4-58">
          <mxGeometry x="135" y="1160" width="30" height="30" as="geometry" />
        </mxCell>
        <mxCell id="je0l_PIvOaVlnG0qqJf4-35" value="Alternative" style="shape=umlFrame;whiteSpace=wrap;html=1;pointerEvents=0;recursiveResize=0;container=1;collapsible=0;width=170;fontSize=15;" vertex="1" parent="1">
          <mxGeometry x="20" y="580" width="1060" height="660" as="geometry" />
        </mxCell>
        <mxCell id="je0l_PIvOaVlnG0qqJf4-36" value="[No scoring dice]" style="text;html=1;fontSize=16;" vertex="1" parent="je0l_PIvOaVlnG0qqJf4-35">
          <mxGeometry width="100" height="20" relative="1" as="geometry">
            <mxPoint y="30" as="offset" />
          </mxGeometry>
        </mxCell>
        <mxCell id="je0l_PIvOaVlnG0qqJf4-37" value="[At least one scoring die]" style="line;strokeWidth=1;dashed=1;labelPosition=center;verticalLabelPosition=bottom;align=left;verticalAlign=top;spacingLeft=20;spacingTop=15;html=1;whiteSpace=wrap;fontSize=16;" vertex="1" parent="je0l_PIvOaVlnG0qqJf4-35">
          <mxGeometry y="200" width="1060" height="10" as="geometry" />
        </mxCell>
        <mxCell id="je0l_PIvOaVlnG0qqJf4-38" value="" style="endArrow=classic;html=1;rounded=0;" edge="1" parent="je0l_PIvOaVlnG0qqJf4-35" target="7baba1c4bc27f4b0-8">
          <mxGeometry width="50" height="50" relative="1" as="geometry">
            <mxPoint x="854.5" y="60" as="sourcePoint" />
            <mxPoint x="129.66666666666652" y="60" as="targetPoint" />
          </mxGeometry>
        </mxCell>
        <mxCell id="je0l_PIvOaVlnG0qqJf4-39" value="displayFarkle()" style="edgeLabel;html=1;align=center;verticalAlign=middle;resizable=0;points=[];fontSize=16;" vertex="1" connectable="0" parent="je0l_PIvOaVlnG0qqJf4-38">
          <mxGeometry x="0.0715" y="-1" relative="1" as="geometry">
            <mxPoint x="4" as="offset" />
          </mxGeometry>
        </mxCell>
        <mxCell id="je0l_PIvOaVlnG0qqJf4-53" value="" style="endArrow=classic;html=1;rounded=0;" edge="1" parent="je0l_PIvOaVlnG0qqJf4-35">
          <mxGeometry width="50" height="50" relative="1" as="geometry">
            <mxPoint x="129.81034482758605" y="450" as="sourcePoint" />
            <mxPoint x="569.5" y="450" as="targetPoint" />
          </mxGeometry>
        </mxCell>
        <mxCell id="je0l_PIvOaVlnG0qqJf4-54" value="bank score" style="edgeLabel;html=1;align=center;verticalAlign=middle;resizable=0;points=[];fontSize=16;" vertex="1" connectable="0" parent="je0l_PIvOaVlnG0qqJf4-53">
          <mxGeometry x="-0.0739" y="2" relative="1" as="geometry">
            <mxPoint as="offset" />
          </mxGeometry>
        </mxCell>
      </root>
    </mxGraphModel>
  </diagram>
</mxfile>
